<svg width="22" height="18" viewBox="0 0 22 18" fill="none" xmlns="http://www.w3.org/2000/svg">
<path fill-rule="evenodd" clip-rule="evenodd" d="M10 0.999924C10 0.447639 10.4477 -7.62939e-05 11 -7.62939e-05H21C21.5523 -7.62939e-05 22 0.447639 22 0.999924V7.8749C22 8.42718 21.5523 8.8749 21 8.8749C20.4477 8.8749 20 8.42718 20 7.8749V1.99992H11C10.4477 1.99992 10 1.55221 10 0.999924ZM0 4.9999C0 4.44761 0.447715 3.9999 1 3.9999H17C17.5523 3.9999 18 4.44761 18 4.9999V16.9999C18 17.5522 17.5523 17.9999 17 17.9999H1C0.447715 17.9999 0 17.5522 0 16.9999V4.9999ZM2 5.9999V15.9999H16V5.9999H2ZM6 10.9999C6 9.34306 7.34317 7.9999 9 7.9999C10.6568 7.9999 12 9.34306 12 10.9999C12 12.6568 10.6568 13.9999 9 13.9999C7.34318 13.9999 6 12.6568 6 10.9999ZM9 9.9999C8.44773 9.9999 8 10.4476 8 10.9999C8 11.5522 8.44772 11.9999 9 11.9999C9.55228 11.9999 10 11.5522 10 10.9999C10 10.4476 9.55227 9.9999 9 9.9999Z" fill="#F2F2F2"/>
</svg>
