<svg width="12" height="12" viewBox="0 0 12 12" fill="none" xmlns="http://www.w3.org/2000/svg">
<path d="M10.7494 2H9.6661V2.66667H10.6661V10H1.33277V2.66667H2.33277V2H1.24943C1.17151 2.0013 1.09461 2.01794 1.02312 2.04897C0.951634 2.08 0.886958 2.1248 0.832788 2.18083C0.778619 2.23686 0.736017 2.30301 0.707417 2.3755C0.678816 2.44799 0.664777 2.52541 0.666101 2.60333V10.0633C0.664777 10.1413 0.678816 10.2187 0.707417 10.2912C0.736017 10.3637 0.778619 10.4298 0.832788 10.4858C0.886958 10.5419 0.951634 10.5867 1.02312 10.6177C1.09461 10.6487 1.17151 10.6654 1.24943 10.6667H10.7494C10.8274 10.6654 10.9043 10.6487 10.9757 10.6177C11.0472 10.5867 11.1119 10.5419 11.1661 10.4858C11.2203 10.4298 11.2629 10.3637 11.2915 10.2912C11.3201 10.2187 11.3341 10.1413 11.3328 10.0633V2.60333C11.3341 2.52541 11.3201 2.44799 11.2915 2.3755C11.2629 2.30301 11.2203 2.23686 11.1661 2.18083C11.1119 2.1248 11.0472 2.08 10.9757 2.04897C10.9043 2.01794 10.8274 2.0013 10.7494 2Z" fill="#393939"/>
<path d="M2.66602 4.66602H3.33268V5.33268H2.66602V4.66602Z" fill="#393939"/>
<path d="M4.66602 4.66602H5.33268V5.33268H4.66602V4.66602Z" fill="#393939"/>
<path d="M6.66602 4.66602H7.33268V5.33268H6.66602V4.66602Z" fill="#393939"/>
<path d="M8.66602 4.66602H9.33268V5.33268H8.66602V4.66602Z" fill="#393939"/>
<path d="M2.66602 6.33398H3.33268V7.00065H2.66602V6.33398Z" fill="#393939"/>
<path d="M4.66602 6.33398H5.33268V7.00065H4.66602V6.33398Z" fill="#393939"/>
<path d="M6.66602 6.33398H7.33268V7.00065H6.66602V6.33398Z" fill="#393939"/>
<path d="M8.66602 6.33398H9.33268V7.00065H8.66602V6.33398Z" fill="#393939"/>
<path d="M2.66602 8H3.33268V8.66667H2.66602V8Z" fill="#393939"/>
<path d="M4.66602 8H5.33268V8.66667H4.66602V8Z" fill="#393939"/>
<path d="M6.66602 8H7.33268V8.66667H6.66602V8Z" fill="#393939"/>
<path d="M8.66602 8H9.33268V8.66667H8.66602V8Z" fill="#393939"/>
<path d="M3.33333 3.33268C3.42174 3.33268 3.50652 3.29756 3.56904 3.23505C3.63155 3.17254 3.66667 3.08775 3.66667 2.99935V0.999349C3.66667 0.910943 3.63155 0.826159 3.56904 0.763647C3.50652 0.701135 3.42174 0.666016 3.33333 0.666016C3.24493 0.666016 3.16014 0.701135 3.09763 0.763647C3.03512 0.826159 3 0.910943 3 0.999349V2.99935C3 3.08775 3.03512 3.17254 3.09763 3.23505C3.16014 3.29756 3.24493 3.33268 3.33333 3.33268Z" fill="#393939"/>
<path d="M8.66732 3.33268C8.75572 3.33268 8.84051 3.29756 8.90302 3.23505C8.96553 3.17254 9.00065 3.08775 9.00065 2.99935V0.999349C9.00065 0.910943 8.96553 0.826159 8.90302 0.763647C8.84051 0.701135 8.75572 0.666016 8.66732 0.666016C8.57891 0.666016 8.49413 0.701135 8.43162 0.763647C8.3691 0.826159 8.33398 0.910943 8.33398 0.999349V2.99935C8.33398 3.08775 8.3691 3.17254 8.43162 3.23505C8.49413 3.29756 8.57891 3.33268 8.66732 3.33268Z" fill="#393939"/>
<path d="M4.33398 2H7.66732V2.66667H4.33398V2Z" fill="#393939"/>
</svg>
