<svg width="20" height="20" viewBox="0 0 20 20" fill="none" xmlns="http://www.w3.org/2000/svg">
<path d="M17.917 3.33398H16.1115V4.4451H17.7781V16.6673H2.22258V4.4451H3.88925V3.33398H2.08369C1.95382 3.33615 1.82566 3.36389 1.70651 3.4156C1.58736 3.46731 1.47957 3.54199 1.38928 3.63537C1.299 3.72875 1.228 3.839 1.18033 3.95982C1.13266 4.08064 1.10926 4.20967 1.11147 4.33954V16.7729C1.10926 16.9027 1.13266 17.0318 1.18033 17.1526C1.228 17.2734 1.299 17.3837 1.38928 17.477C1.47957 17.5704 1.58736 17.6451 1.70651 17.6968C1.82566 17.7485 1.95382 17.7763 2.08369 17.7784H17.917C18.0469 17.7763 18.1751 17.7485 18.2942 17.6968C18.4134 17.6451 18.5212 17.5704 18.6114 17.477C18.7017 17.3837 18.7727 17.2734 18.8204 17.1526C18.8681 17.0318 18.8915 16.9027 18.8892 16.7729V4.33954C18.8915 4.20967 18.8681 4.08064 18.8204 3.95982C18.7727 3.839 18.7017 3.72875 18.6114 3.63537C18.5212 3.54199 18.4134 3.46731 18.2942 3.4156C18.1751 3.36389 18.0469 3.33615 17.917 3.33398Z" fill="#006699"/>
<path d="M4.44336 7.77734H5.55447V8.88846H4.44336V7.77734Z" fill="#006699"/>
<path d="M7.77734 7.77734H8.88846V8.88846H7.77734V7.77734Z" fill="#006699"/>
<path d="M11.1113 7.77734H12.2224V8.88846H11.1113V7.77734Z" fill="#006699"/>
<path d="M14.4434 7.77734H15.5545V8.88846H14.4434V7.77734Z" fill="#006699"/>
<path d="M4.44336 10.5566H5.55447V11.6678H4.44336V10.5566Z" fill="#006699"/>
<path d="M7.77734 10.5566H8.88846V11.6678H7.77734V10.5566Z" fill="#006699"/>
<path d="M11.1113 10.5566H12.2224V11.6678H11.1113V10.5566Z" fill="#006699"/>
<path d="M14.4434 10.5566H15.5545V11.6678H14.4434V10.5566Z" fill="#006699"/>
<path d="M4.44336 13.334H5.55447V14.4451H4.44336V13.334Z" fill="#006699"/>
<path d="M7.77734 13.334H8.88846V14.4451H7.77734V13.334Z" fill="#006699"/>
<path d="M11.1113 13.334H12.2224V14.4451H11.1113V13.334Z" fill="#006699"/>
<path d="M14.4434 13.334H15.5545V14.4451H14.4434V13.334Z" fill="#006699"/>
<path d="M5.55556 5.55577C5.7029 5.55577 5.84421 5.49724 5.94839 5.39305C6.05258 5.28887 6.11111 5.14756 6.11111 5.00022V1.66688C6.11111 1.51954 6.05258 1.37823 5.94839 1.27405C5.84421 1.16986 5.7029 1.11133 5.55556 1.11133C5.40821 1.11133 5.26691 1.16986 5.16272 1.27405C5.05853 1.37823 5 1.51954 5 1.66688V5.00022C5 5.14756 5.05853 5.28887 5.16272 5.39305C5.26691 5.49724 5.40821 5.55577 5.55556 5.55577Z" fill="#006699"/>
<path d="M14.4442 5.55577C14.5916 5.55577 14.7329 5.49724 14.8371 5.39305C14.9413 5.28887 14.9998 5.14756 14.9998 5.00022V1.66688C14.9998 1.51954 14.9413 1.37823 14.8371 1.27405C14.7329 1.16986 14.5916 1.11133 14.4442 1.11133C14.2969 1.11133 14.1556 1.16986 14.0514 1.27405C13.9472 1.37823 13.8887 1.51954 13.8887 1.66688V5.00022C13.8887 5.14756 13.9472 5.28887 14.0514 5.39305C14.1556 5.49724 14.2969 5.55577 14.4442 5.55577Z" fill="#006699"/>
<path d="M7.22266 3.33398H12.7782V4.4451H7.22266V3.33398Z" fill="#006699"/>
</svg>
