<svg width="7" height="7" viewBox="0 0 7 7" fill="none" xmlns="http://www.w3.org/2000/svg">
<path d="M0.33308 6.99833C0.36008 6.99833 0.38708 6.99499 0.413747 6.98833L1.74708 6.65499C1.80575 6.64033 1.85941 6.60999 1.90208 6.56733L5.99975 2.46966C6.12575 2.34366 6.19508 2.17633 6.19508 1.99833C6.19508 1.82033 6.12575 1.65299 5.99975 1.52699L5.47108 0.998326C5.21908 0.746326 4.78041 0.746326 4.52841 0.998326L0.430747 5.09599C0.388102 5.13869 0.357808 5.19214 0.34308 5.25066L0.00974708 6.58399C-0.00256538 6.63314 -0.00351105 6.68445 0.0069819 6.73402C0.0174749 6.78359 0.0391302 6.83012 0.0703022 6.87006C0.101474 6.91001 0.141342 6.94232 0.186876 6.96455C0.23241 6.98677 0.282412 6.99832 0.33308 6.99833ZM4.99975 1.46966L5.52841 1.99833L4.99975 2.52699L4.47108 1.99833L4.99975 1.46966ZM0.967414 5.50199L3.99975 2.46966L4.52841 2.99833L1.49575 6.03066L0.79108 6.20666L0.967414 5.50199Z" fill="#6B6B6B"/>
</svg>
