<svg width="10" height="10" viewBox="0 0 10 10" fill="none" xmlns="http://www.w3.org/2000/svg">
<path d="M0.538026 10C0.581607 10 0.625188 9.99461 0.668232 9.98384L2.82039 9.44525C2.91509 9.42155 3.00171 9.37254 3.07058 9.3036L9.68471 2.68272C9.88809 2.47913 10 2.20876 10 1.92115C10 1.63354 9.88809 1.36317 9.68471 1.15958L8.83138 0.305381C8.42462 -0.101794 7.71656 -0.101794 7.3098 0.305381L0.695672 6.92627C0.626837 6.99526 0.57794 7.08161 0.554167 7.17617L0.016127 9.33053C-0.00374676 9.40995 -0.00527318 9.49285 0.0116637 9.57295C0.0286006 9.65304 0.063555 9.72822 0.11387 9.79276C0.164186 9.8573 0.228538 9.90951 0.302035 9.94542C0.375532 9.98133 0.456241 10 0.538026 10ZM8.07059 1.06695L8.92392 1.92115L8.07059 2.77535L7.21726 1.92115L8.07059 1.06695ZM1.56192 7.58227L6.45647 2.68272L7.3098 3.53692L2.41471 8.43647L1.27729 8.72085L1.56192 7.58227Z"/>
</svg>
