<svg width="10" height="10" viewBox="0 0 10 10" fill="none" xmlns="http://www.w3.org/2000/svg">
<path d="M4.625 0.12507C4.00813 0.12507 3.5 0.633196 3.5 1.25007L3.506 1.18857L3.13663 3.40482L2.42788 5.34432C2.41437 5.36195 2.39825 5.37507 2.375 5.37507H2V5.00007H0.125V9.87507H2V8.75007H3.47225C4.08875 8.75007 4.64412 8.4512 5 7.98695C5.35625 8.4512 5.91125 8.75007 6.52775 8.75007H8V9.87507H9.875V5.00007H8V5.37507H7.625C7.60138 5.37507 7.58563 5.36195 7.5725 5.34432L6.86337 3.40482L6.494 1.18857L6.5 1.25007C6.5 0.633196 5.99188 0.12507 5.375 0.12507C5.2475 0.12507 5.117 0.14982 5 0.210195C4.8835 0.152543 4.75498 0.123368 4.625 0.12507ZM4.61188 0.88107C4.61938 0.93507 4.625 1.05807 4.625 1.25007V7.03932C4.57588 7.30915 4.43355 7.55316 4.22286 7.72876C4.01218 7.90435 3.74652 8.00038 3.47225 8.00007H2V6.12507H2.375C2.66937 6.12507 2.9435 5.96532 3.08825 5.70882L3.10325 5.68107L3.86337 3.59532L4.25 1.28082V1.25007C4.25 1.04382 4.40825 0.888195 4.61188 0.88107ZM5.38812 0.88107C5.59175 0.88857 5.75 1.04345 5.75 1.25007V1.28082L6.13663 3.59532L6.89713 5.68107L6.91175 5.7092C6.98336 5.83529 7.08707 5.94019 7.21234 6.01323C7.33762 6.08627 7.47999 6.12486 7.625 6.12507H8V8.00007H6.52775C6.25343 8.00036 5.98773 7.90428 5.77703 7.72861C5.56634 7.55294 5.42405 7.30885 5.375 7.03895V1.25007C5.375 1.05807 5.381 0.93507 5.38812 0.88107ZM0.875 5.75007H1.25V9.12507H0.875V5.75007ZM8.75 5.75007H9.125V9.12507H8.75V5.75007Z"/>
</svg>
