<svg width="10" height="10" viewBox="0 0 10 10" fill="none" xmlns="http://www.w3.org/2000/svg">
<path d="M2.83398 4.11808L3.60048 3.47458L4.24298 4.24058L5.77499 2.95508L6.41799 3.72108L4.11998 5.64958L2.83398 4.11758V4.11808Z"/>
<path fill-rule="evenodd" clip-rule="evenodd" d="M7.10424 1.44704C7.79337 2.13613 8.20726 3.05308 8.26821 4.02572C8.32916 4.99837 8.03296 5.95981 7.43524 6.72954C7.44324 6.73604 7.45024 6.74304 7.45774 6.75054L9.57924 8.87204C9.67031 8.96634 9.72071 9.09264 9.71957 9.22374C9.71843 9.35484 9.66585 9.48024 9.57315 9.57295C9.48044 9.66565 9.35504 9.71823 9.22394 9.71937C9.09284 9.72051 8.96654 9.67011 8.87224 9.57904L6.75074 7.45754C6.74352 7.45024 6.73651 7.44274 6.72974 7.43504C5.92591 8.05853 4.91475 8.35237 3.90197 8.25679C2.88918 8.16121 1.95085 7.68338 1.27786 6.92051C0.604878 6.15765 0.247795 5.16705 0.27926 4.15025C0.310724 3.13345 0.728371 2.16683 1.44724 1.44704C1.81867 1.07558 2.25964 0.780924 2.74495 0.579892C3.23027 0.37886 3.75043 0.275391 4.27574 0.275391C4.80104 0.275391 5.3212 0.37886 5.80652 0.579892C6.29183 0.780924 6.7328 1.07558 7.10424 1.44704ZM6.39724 6.39704C6.67954 6.1193 6.90405 5.78841 7.05784 5.42347C7.21162 5.05853 7.29162 4.66674 7.29324 4.27073C7.29485 3.87471 7.21804 3.48229 7.06723 3.11611C6.91643 2.74992 6.69461 2.41722 6.41458 2.13719C6.13455 1.85716 5.80185 1.63535 5.43567 1.48454C5.06948 1.33374 4.67706 1.25692 4.28105 1.25854C3.88503 1.26015 3.49325 1.34015 3.1283 1.49394C2.76336 1.64772 2.43248 1.87224 2.15474 2.15454C1.5997 2.71869 1.29006 3.47932 1.29329 4.27073C1.29651 5.06214 1.61232 5.82021 2.17194 6.37983C2.73156 6.93945 3.48963 7.25526 4.28105 7.25849C5.07246 7.26171 5.83308 6.95208 6.39724 6.39704Z"/>
</svg>
