<svg width="10" height="10" viewBox="0 0 10 10" fill="none" xmlns="http://www.w3.org/2000/svg">
<path d="M6.07982 3.33398L5.00065 4.41315L3.92148 3.33398L3.33398 3.92148L4.41315 5.00065L3.33398 6.07982L3.92148 6.66732L5.00065 5.58815L6.07982 6.66732L6.66732 6.07982L5.58815 5.00065L6.66732 3.92148L6.07982 3.33398ZM5.00065 0.833984C2.69648 0.833984 0.833984 2.69648 0.833984 5.00065C0.833984 7.30482 2.69648 9.16732 5.00065 9.16732C7.30482 9.16732 9.16732 7.30482 9.16732 5.00065C9.16732 2.69648 7.30482 0.833984 5.00065 0.833984ZM5.00065 8.33398C3.16315 8.33398 1.66732 6.83815 1.66732 5.00065C1.66732 3.16315 3.16315 1.66732 5.00065 1.66732C6.83815 1.66732 8.33398 3.16315 8.33398 5.00065C8.33398 6.83815 6.83815 8.33398 5.00065 8.33398Z"/>
</svg>
