<svg width="13" height="9" viewBox="0 0 13 9" fill="none" xmlns="http://www.w3.org/2000/svg">
<path d="M11.7812 0.03125H1.21875C0.994043 0.03125 0.8125 0.212793 0.8125 0.4375V8.5625C0.8125 8.78721 0.994043 8.96875 1.21875 8.96875H11.7812C12.006 8.96875 12.1875 8.78721 12.1875 8.5625V0.4375C12.1875 0.212793 12.006 0.03125 11.7812 0.03125ZM11.2734 1.43789V8.05469H1.72656V1.43789L1.37617 1.16494L1.8751 0.523828L2.41846 0.946582H10.5828L11.1262 0.523828L11.6251 1.16494L11.2734 1.43789ZM10.5828 0.945312L6.5 4.11914L2.41719 0.945312L1.87383 0.522559L1.3749 1.16367L1.72529 1.43662L6.06201 4.8085C6.18673 4.90539 6.34016 4.95798 6.4981 4.95798C6.65603 4.95798 6.80946 4.90539 6.93418 4.8085L11.2734 1.43789L11.6238 1.16494L11.1249 0.523828L10.5828 0.945312Z" fill="#575757"/>
</svg>
