<svg width="10" height="10" viewBox="0 0 10 10" fill="none" xmlns="http://www.w3.org/2000/svg">
<path d="M10 5.00012L8 3.00012V4.50012H4V5.50012H8V7.00012L10 5.00012ZM9 8.00012C8.37035 8.83965 7.49252 9.45979 6.49084 9.77269C5.48916 10.0856 4.41442 10.0754 3.41886 9.74354C2.4233 9.41169 1.55739 8.775 0.943789 7.92367C0.330187 7.07235 0 6.04954 0 5.00012C0 3.95071 0.330187 2.9279 0.943789 2.07657C1.55739 1.22524 2.4233 0.588559 3.41886 0.256706C4.41442 -0.0751478 5.48916 -0.0853464 6.49084 0.227554C7.49252 0.540455 8.37035 1.16059 9 2.00012H7.635C7.05766 1.49095 6.34566 1.15919 5.58444 1.04465C4.82322 0.930109 4.04511 1.03765 3.3435 1.35437C2.64188 1.67109 2.04656 2.18354 1.62897 2.83021C1.21137 3.47689 0.989249 4.23033 0.989249 5.00012C0.989249 5.76991 1.21137 6.52335 1.62897 7.17003C2.04656 7.81671 2.64188 8.32915 3.3435 8.64587C4.04511 8.96259 4.82322 9.07014 5.58444 8.95559C6.34566 8.84105 7.05766 8.50929 7.635 8.00012H9Z" />
</svg>
