<svg width="15" height="16" viewBox="0 0 15 16" fill="none" xmlns="http://www.w3.org/2000/svg">
<path d="M8.09494 0.59375C8.09494 0.436278 8.03238 0.285255 7.92103 0.173905C7.80968 0.0625556 7.65866 0 7.50119 0C7.34372 0 7.19269 0.0625556 7.08134 0.173905C6.96999 0.285255 6.90744 0.436278 6.90744 0.59375V1.1875H5.71875C5.24633 1.1875 4.79326 1.37517 4.45922 1.70922C4.12517 2.04327 3.9375 2.49633 3.9375 2.96875V3.56725C4.56739 3.56725 5.17148 3.81747 5.61688 4.26287C6.06228 4.70827 6.3125 5.31236 6.3125 5.94225V15.4375H8.6875V7.7235C8.68736 7.03911 8.92368 6.37569 9.35647 5.84553C9.78927 5.31536 10.3919 4.951 11.0625 4.81413V2.96875C11.0625 2.49633 10.8748 2.04327 10.5408 1.70922C10.2067 1.37517 9.75367 1.1875 9.28125 1.1875H8.09494V0.59375Z" fill="#006699"/>
<path d="M12.8438 15.4375H9.875V7.7235C9.875 7.25108 10.0627 6.79802 10.3967 6.46397C10.7308 6.12992 11.1838 5.94225 11.6562 5.94225H12.8438V5.9375C13.3162 5.9375 13.7692 6.12517 14.1033 6.45922C14.4373 6.79326 14.625 7.24633 14.625 7.71875V13.6562C14.625 14.1287 14.4373 14.5817 14.1033 14.9158C13.7692 15.2498 13.3162 15.4375 12.8438 15.4375Z" fill="#006699"/>
<path d="M3.75106 4.91019C3.88557 4.82299 4.04112 4.7737 4.20131 4.76754C4.36149 4.76137 4.52037 4.79855 4.66119 4.87516C4.802 4.95177 4.91953 5.06496 5.00137 5.2028C5.08321 5.34064 5.12633 5.49801 5.12619 5.65832L5.125 14.8436C5.125 15.0011 5.06244 15.1521 4.95109 15.2635C4.83975 15.3748 4.68872 15.4374 4.53125 15.4374H2.15625C1.68383 15.4374 1.23077 15.2497 0.896716 14.9157C0.562667 14.5816 0.375 14.1285 0.375 13.6561V8.06657C0.375124 7.76959 0.449499 7.47735 0.591359 7.21645C0.733218 6.95554 0.93806 6.73425 1.18725 6.57269L3.75225 4.91019H3.75106Z" fill="#006699"/>
</svg>
