<svg width="16" height="16" viewBox="0 0 16 16" fill="none" xmlns="http://www.w3.org/2000/svg">
<path d="M15.7344 5.46484C15.8289 5.46484 15.9062 5.3875 15.9062 5.29297V4.00391C15.9062 3.90937 15.8289 3.83203 15.7344 3.83203H12.2109V0.265625C12.2109 0.171094 12.1336 0.09375 12.0391 0.09375H10.6641C10.5695 0.09375 10.4922 0.171094 10.4922 0.265625V3.83203H5.59375V0.265625C5.59375 0.171094 5.51641 0.09375 5.42188 0.09375H4.04688C3.95234 0.09375 3.875 0.171094 3.875 0.265625V3.83203H0.265625C0.171094 3.83203 0.09375 3.90937 0.09375 4.00391V5.29297C0.09375 5.3875 0.171094 5.46484 0.265625 5.46484H3.875V10.5352H0.265625C0.171094 10.5352 0.09375 10.6125 0.09375 10.707V11.9961C0.09375 12.0906 0.171094 12.168 0.265625 12.168H3.875V15.7344C3.875 15.8289 3.95234 15.9062 4.04688 15.9062H5.42188C5.51641 15.9062 5.59375 15.8289 5.59375 15.7344V12.168H10.4922V15.7344C10.4922 15.8289 10.5695 15.9062 10.6641 15.9062H12.0391C12.1336 15.9062 12.2109 15.8289 12.2109 15.7344V12.168H15.7344C15.8289 12.168 15.9062 12.0906 15.9062 11.9961V10.707C15.9062 10.6125 15.8289 10.5352 15.7344 10.5352H12.2109V5.46484H15.7344ZM10.4922 10.5352H5.59375V5.46484H10.4922V10.5352Z" fill="#006699"/>
</svg>
