<svg width="21" height="21" viewBox="0 0 21 21" fill="none" xmlns="http://www.w3.org/2000/svg">
<path d="M17.5002 9.62412H19.2502C19.2502 5.13537 15.8613 1.75 11.3665 1.75V3.5C14.9207 3.5 17.5002 6.07512 17.5002 9.62412Z" fill="#006699"/>
<path d="M11.375 6.99997C13.2151 6.99997 14 7.78485 14 9.62497H15.75C15.75 6.8031 14.1968 5.24997 11.375 5.24997V6.99997ZM14.3692 11.7626C14.2011 11.6098 13.9801 11.5283 13.753 11.5353C13.5259 11.5423 13.3105 11.6373 13.1521 11.8002L11.0582 13.9536C10.5542 13.8573 9.54096 13.5415 8.49796 12.5011C7.45496 11.4572 7.13909 10.4413 7.04546 9.94085L9.19709 7.8461C9.3602 7.68783 9.45533 7.47232 9.46236 7.24515C9.46938 7.01799 9.38774 6.79701 9.23471 6.62897L6.00159 3.07385C5.8485 2.90528 5.63573 2.80304 5.40847 2.78882C5.18121 2.77461 4.95736 2.84955 4.78446 2.99772L2.88571 4.6261C2.73444 4.77792 2.64414 4.97999 2.63196 5.19397C2.61884 5.41272 2.36859 10.5945 6.38659 14.6142C9.89184 18.1186 14.2826 18.375 15.4918 18.375C15.6686 18.375 15.7771 18.3697 15.806 18.368C16.0199 18.356 16.2219 18.2653 16.373 18.1133L18.0005 16.2137C18.1487 16.0409 18.2238 15.8172 18.2098 15.5899C18.1957 15.3626 18.0937 15.1498 17.9252 14.9966L14.3692 11.7626Z" fill="#006699"/>
</svg>
