<svg width="462" height="428" viewBox="0 0 462 428" fill="none" xmlns="http://www.w3.org/2000/svg">
<path d="M454.491 172.199H378.158L394.624 165.201C403.684 161.35 410.213 153.282 412.09 143.618C413.966 133.953 410.931 124.028 403.969 117.066C397.007 110.104 387.081 107.07 377.417 108.945C367.753 110.821 359.685 117.351 355.834 126.411L341.336 160.524L326.838 126.411C322.987 117.351 314.919 110.822 305.255 108.945C295.59 107.068 285.666 110.104 278.704 117.066C271.743 124.027 268.706 133.953 270.583 143.618C272.459 153.282 278.989 161.351 288.049 165.201L304.515 172.199H228.182C224.04 172.199 220.682 175.557 220.682 179.699V225.998C220.682 230.14 224.04 233.498 228.182 233.498H240.849V252.416H180.813V156.456H189.531C193.673 156.456 197.031 153.098 197.031 148.956V84.3054C197.031 80.1634 193.673 76.8054 189.531 76.8054H135.337L162.07 65.4444C172.509 61.0074 180.032 51.7114 182.194 40.5764C184.356 29.4414 180.858 18.0044 172.837 9.9844C164.816 1.9634 153.379 -1.53561 142.245 0.628394C131.11 2.79039 121.813 10.3134 117.377 20.7524L98.516 65.1324L79.655 20.7524C75.218 10.3134 65.922 2.79039 54.787 0.628394C43.649 -1.53561 32.215 1.96439 24.194 9.9844C16.173 18.0054 12.675 29.4424 14.838 40.5774C17 51.7114 24.522 61.0084 34.961 65.4444L61.694 76.8054H7.5C3.358 76.8054 0 80.1634 0 84.3054V148.956C0 153.098 3.358 156.456 7.5 156.456H16.218V420.351C16.218 424.493 19.576 427.851 23.718 427.851H149.464H173.313H248.349H299.059H434.323C438.465 427.851 441.823 424.493 441.823 420.351V233.498H454.49C458.632 233.498 461.99 230.14 461.99 225.998V179.699C461.991 175.557 458.633 172.199 454.491 172.199ZM369.639 132.279C371.565 127.747 375.442 124.61 380.276 123.671C381.237 123.484 382.196 123.393 383.143 123.393C386.957 123.393 390.573 124.884 393.363 127.673C396.845 131.155 398.303 135.925 397.365 140.759C396.427 145.593 393.289 149.47 388.757 151.396L355.509 165.526L369.639 132.279ZM285.308 140.759C284.37 135.925 285.829 131.155 289.31 127.673C292.1 124.883 295.715 123.393 299.529 123.393C300.475 123.393 301.434 123.485 302.395 123.671C307.229 124.609 311.106 127.747 313.033 132.279L327.163 165.527L293.915 151.397C289.384 149.47 286.246 145.593 285.308 140.759ZM140.747 283.283V267.417H307.778V283.283H140.747ZM131.182 26.6184C133.703 20.6864 138.777 16.5804 145.104 15.3524C151.429 14.1224 157.673 16.0334 162.23 20.5904C166.787 25.1484 168.697 31.3904 167.468 37.7174C166.239 44.0444 162.133 49.1184 156.202 51.6394L112.687 70.1334L131.182 26.6184ZM29.563 37.7174C28.334 31.3904 30.243 25.1484 34.8 20.5904C38.451 16.9394 43.184 14.9874 48.175 14.9874C49.413 14.9874 50.669 15.1084 51.926 15.3524C58.253 16.5804 63.327 20.6864 65.848 26.6184L84.342 70.1334L40.829 51.6394C34.897 49.1184 30.791 44.0444 29.563 37.7174ZM15 91.8054H182.031V141.456H15V91.8054ZM31.218 156.457H165.813V252.417H133.247C129.105 252.417 125.747 255.775 125.747 259.917V290.783C125.747 294.925 129.105 298.283 133.247 298.283H141.965V412.852H31.218V156.457ZM248.349 412.852H173.313H156.964V298.283H291.56V412.852H248.349ZM426.824 412.852H306.56V298.283H315.278C319.42 298.283 322.778 294.925 322.778 290.783V259.917C322.778 255.775 319.42 252.417 315.278 252.417H255.85V233.499H426.825V412.852H426.824ZM446.991 218.498H235.682V187.199H446.991V218.498Z"/>
</svg>
