<svg width="25" height="25" viewBox="0 0 25 25" fill="none" xmlns="http://www.w3.org/2000/svg">
<path d="M11.5385 0.000180572C9.95673 0.000180572 8.65385 1.30306 8.65385 2.88478L8.66923 2.72708L7.72212 8.40974L5.90481 13.3828C5.87019 13.428 5.82885 13.4616 5.76923 13.4616H4.80769V12.5001H0V25H4.80769V22.1154H8.58269C10.1635 22.1154 11.5875 21.3491 12.5 20.1587C13.4135 21.3491 14.8365 22.1154 16.4173 22.1154H20.1923V25H25V12.5001H20.1923V13.4616H19.2308C19.1702 13.4616 19.1298 13.428 19.0962 13.3828L17.2779 8.40974L16.3308 2.72708L16.3462 2.88478C16.3462 1.30306 15.0433 0.000180572 13.4615 0.000180572C13.1346 0.000180572 12.8 0.0636417 12.5 0.218448C12.2013 0.0706226 11.8717 -0.0041838 11.5385 0.000180572ZM11.5048 1.93863C11.524 2.07709 11.5385 2.39247 11.5385 2.88478V17.7289C11.4125 18.4208 11.0476 19.0464 10.5073 19.4967C9.96712 19.9469 9.28594 20.1931 8.58269 20.1923H4.80769V15.3847H5.76923C6.52404 15.3847 7.22692 14.9751 7.59808 14.3174L7.63654 14.2462L9.58558 8.89819L10.5769 2.96362V2.88478C10.5769 2.35593 10.9827 1.9569 11.5048 1.93863ZM13.4952 1.93863C14.0173 1.95786 14.4231 2.35497 14.4231 2.88478V2.96362L15.4144 8.89819L17.3644 14.2462L17.4019 14.3183C17.5855 14.6417 17.8515 14.9106 18.1727 15.0979C18.4939 15.2852 18.8589 15.3841 19.2308 15.3847H20.1923V20.1923H16.4173C15.7139 20.1931 15.0326 19.9467 14.4924 19.4963C13.9521 19.0459 13.5873 18.42 13.4615 17.7279V2.88478C13.4615 2.39247 13.4769 2.07709 13.4952 1.93863ZM1.92308 14.4232H2.88462V23.0769H1.92308V14.4232ZM22.1154 14.4232H23.0769V23.0769H22.1154V14.4232Z"/>
</svg>
