<svg width="424" height="424" viewBox="0 0 424 424" fill="none" xmlns="http://www.w3.org/2000/svg">
<path d="M144.199 1.14932C133.02 3.63266 121.348 11.087 114.555 19.8609C110.168 25.5761 105.612 34.5188 103.955 40.8915C101.801 48.7569 101.39 61.2602 103.047 69.4587C105.946 84.3631 115.468 98.77 125.488 103.572L130.455 105.891H72.9914C29.9352 105.891 14.6977 106.138 12.1321 106.886C7.74519 108.21 2.36316 113.592 1.03496 117.983C-0.288912 122.617 -0.371113 195.4 0.952762 199.54C2.52757 204.178 5.84158 207.821 10.3107 209.893C14.0358 211.632 15.6928 211.879 25.1329 211.879H35.6504V302.88C35.6504 391.727 35.6504 393.964 37.3074 399.259C40.4527 409.361 48.6512 417.806 59.2508 421.865C63.2268 423.357 68.0291 423.439 212.435 423.439H361.479L366.446 421.121C369.18 419.879 372.905 417.806 374.645 416.565C379.365 413.337 384.747 405.554 386.733 399.259C388.39 393.959 388.389 391.723 388.389 302.88V211.879H398.989C408.265 211.879 410 211.632 413.647 209.893C418.531 207.656 420.024 206.086 422.261 201.115C423.918 197.554 424 195.815 424 159.383C424 131.728 423.753 120.467 423.005 117.983C421.681 113.596 416.299 108.214 411.912 106.886C409.347 106.142 394.109 105.891 351.053 105.891H293.572L298.539 103.572C308.559 98.77 318.081 84.3631 320.98 69.4587C322.555 61.2602 322.222 48.8391 320.071 40.8915C313.283 15.6384 289.765 -1.83591 265.421 0.154236C248.613 1.64685 233.128 11.4159 225.843 25.3252C224.186 28.5527 221.456 35.0942 219.963 39.8143C217.311 47.8441 212.842 67.5508 212.842 71.1979C212.842 72.0242 212.595 72.7727 212.262 72.7727C211.847 72.7727 210.605 67.6373 209.364 61.3467C204.561 37.0843 199.179 23.6725 190.57 15.2274C184.444 9.18344 176.989 4.54556 169.786 2.30881C162.665 0.0720825 151.156 -0.425476 144.199 1.14932ZM160.596 18.1218C169.786 19.861 179.395 26.9 183.448 34.6832C188.995 45.5294 194.628 72.6083 197.358 101.171L197.773 105.229L192.642 104.65C169.621 102.084 144.286 95.5425 135.01 89.7451C125.652 83.8656 119.362 70.7004 119.279 57.0376C119.279 38.6548 132.198 21.3493 148.262 18.204C153.475 17.2133 155.712 17.2132 160.596 18.1218ZM280.822 19.7788C293.988 24.7455 303.592 38.9057 304.505 54.5543C305.414 69.874 298.876 84.03 287.944 90.407C279.745 95.2094 260.536 100.427 239.752 103.49C225.181 105.645 226.254 105.809 226.669 101.089C229.403 72.4396 235.032 45.6938 240.747 34.4323C244.472 26.8957 253.912 20.0254 262.773 18.1218C267.575 17.131 275.938 17.8752 280.822 19.7788ZM176.409 158.885V194.491H96.9207H17.432V158.885V123.279H96.9207H176.409V158.885ZM229.403 264.873V406.463H212.016H194.628V264.873V123.283H212.016H229.403V264.873ZM406.435 159.05L406.599 194.487H327.111H247.617V158.881V123.275L326.942 123.439L406.184 123.686L406.435 159.05ZM176.409 309.171V406.545L121.097 406.298L65.7015 406.052L61.6433 403.568C58.5803 401.665 57.0055 399.926 55.3484 396.612L53.0295 392.056V301.967V211.879H114.715H176.401V309.171H176.409ZM370.993 302.05V392.22L368.674 396.607C367.017 399.835 365.278 401.743 362.297 403.564L358.321 406.047L302.926 406.294L247.613 406.541V309.167V211.879H309.299H370.984V302.05H370.993Z"/>
</svg>
