<svg width="28" height="36" viewBox="0 0 28 36" fill="none" xmlns="http://www.w3.org/2000/svg">
<path d="M27.4006 17.6009C25.6006 15.7009 23.2006 14.4009 20.7006 13.9009C19.6006 13.6009 18.5006 13.4009 17.4006 13.3009C20.2006 10.0009 19.7006 5.00087 16.4006 2.20087C13.1006 -0.599129 8.10056 -0.0991292 5.30056 3.20087C2.50056 6.50087 3.00056 11.5009 6.30056 14.3009C6.90056 14.8009 7.50056 15.2009 8.10056 15.4009V17.6009L6.50056 16.1009C5.10056 14.7009 2.80056 14.7009 1.30056 16.1009C-0.0994428 17.5009 -0.199443 19.7009 1.20056 21.1009L5.80056 26.5009C6.00056 27.9009 6.50056 29.2009 7.20056 30.4009C7.70056 31.3009 8.40056 32.2009 9.10056 32.9009V34.8009C9.10056 35.4009 9.50056 35.8009 10.1006 35.8009H23.7006C24.2006 35.8009 24.7006 35.3009 24.7006 34.8009V32.2009C26.6006 29.9009 27.6006 27.0009 27.6006 24.1009V18.3009C27.7006 17.9009 27.6006 17.7009 27.4006 17.6009ZM5.40056 8.20087C5.40056 4.90087 8.10056 2.30087 11.4006 2.40087C14.7006 2.40087 17.3006 5.10087 17.2006 8.40087C17.2006 10.2009 16.4006 11.8009 15.0006 12.9009V7.90087C14.9495 7.03424 14.5689 6.21997 13.9367 5.62499C13.3045 5.03 12.4687 4.69937 11.6006 4.70087C9.80056 4.60087 8.20056 6.10087 8.20056 7.90087V13.1009C6.50056 12.1009 5.50056 10.2009 5.40056 8.20087ZM25.7006 24.0009C25.8006 26.6009 24.9006 29.1009 23.2006 31.1009C23.0006 31.3009 22.8006 31.5009 22.8006 31.8009V33.9009H11.2006V32.5009C11.2006 32.2009 11.0006 31.9009 10.8006 31.7009C10.1006 31.1009 9.50056 30.4009 9.00056 29.5009C8.40056 28.5009 8.00056 27.3009 7.80056 26.1009C7.80056 25.9009 7.70056 25.7009 7.60056 25.5009L2.80056 19.8009C2.50056 19.5009 2.30056 19.1009 2.30056 18.6009C2.30056 18.2009 2.50056 17.7009 2.80056 17.4009C3.50056 16.8009 4.50056 16.8009 5.20056 17.4009L8.10056 20.3009V23.3009L10.0006 22.3009V7.90087C10.1006 7.20087 10.7006 6.60087 11.5006 6.70087C12.2006 6.70087 12.9006 7.20087 12.9006 7.90087V19.4009L14.9006 19.8009V15.2009C15.0006 15.1009 15.1006 15.1009 15.2006 15.0009C15.9006 15.0009 16.6006 15.1009 17.3006 15.2009V20.3009L18.9006 20.6009V15.4009L20.1006 15.7009C20.6006 15.8009 21.1006 16.0009 21.6006 16.2009V21.2009L23.2006 21.5009V16.9009C24.1006 17.3009 24.9006 17.9009 25.6006 18.6009L25.7006 24.0009Z"/>
</svg>
