<svg width="24" height="24" viewBox="0 0 24 24" fill="none" xmlns="http://www.w3.org/2000/svg">
<path fill-rule="evenodd" clip-rule="evenodd" d="M15.2455 7.6734L10.7047 13.6362L8.74512 11.133C8.33712 10.6098 7.58112 10.5186 7.06032 10.9278C6.53832 11.3358 6.44592 12.0906 6.85512 12.6114L9.77232 16.3398C10.0003 16.6302 10.3483 16.7994 10.7179 16.7994H10.7263C11.0971 16.7982 11.4475 16.623 11.6719 16.3266L17.1547 9.1266C17.5567 8.5986 17.4547 7.8474 16.9267 7.4454C16.3975 7.0434 15.6463 7.1466 15.2455 7.6734ZM12 21.6C6.7068 21.6 2.4 17.2932 2.4 12C2.4 6.7068 6.7068 2.4 12 2.4C17.2932 2.4 21.6 6.7068 21.6 12C21.6 17.2932 17.2932 21.6 12 21.6ZM12 0C5.3724 0 0 5.3736 0 12C0 18.6264 5.3724 24 12 24C18.6276 24 24 18.6264 24 12C24 5.3736 18.6276 0 12 0Z" fill="#44C38D"/>
</svg>
