<svg width="10" height="10" viewBox="0 0 10 10" fill="none" xmlns="http://www.w3.org/2000/svg">
<path d="M8.75019 9.875H8.68644C1.31768 9.45125 0.271434 3.23375 0.125184 1.33625C0.1134 1.18872 0.130843 1.04031 0.176512 0.899529C0.222182 0.758749 0.295182 0.628364 0.391328 0.515845C0.487475 0.403325 0.604879 0.310883 0.736813 0.243815C0.868748 0.176747 1.01262 0.136371 1.16018 0.125H3.22644C3.37664 0.124855 3.52344 0.169816 3.6478 0.254061C3.77216 0.338306 3.86836 0.457951 3.92394 0.5975L4.49394 2C4.54882 2.13633 4.56244 2.28578 4.5331 2.42978C4.50377 2.57379 4.43277 2.706 4.32894 2.81L3.53018 3.61625C3.65495 4.32528 3.9945 4.97888 4.5029 5.48861C5.01129 5.99834 5.66399 6.33961 6.37269 6.46625L7.18644 5.66C7.292 5.55731 7.42546 5.48797 7.57017 5.46063C7.71488 5.43329 7.86443 5.44915 8.00019 5.50625L9.41394 6.0725C9.55138 6.12983 9.66865 6.22678 9.75079 6.351C9.83293 6.47522 9.87624 6.62108 9.87519 6.77V8.75C9.87519 9.04837 9.75666 9.33452 9.54568 9.5455C9.3347 9.75647 9.04855 9.875 8.75019 9.875ZM1.25018 0.875C1.15073 0.875 1.05535 0.914509 0.98502 0.984835C0.914693 1.05516 0.875184 1.15054 0.875184 1.25V1.28C1.04768 3.5 2.15393 8.75 8.72769 9.125C8.77695 9.12805 8.82633 9.12133 8.873 9.10525C8.91967 9.08917 8.9627 9.06403 8.99963 9.03128C9.03656 8.99854 9.06666 8.95882 9.08821 8.91441C9.10975 8.87 9.12232 8.82178 9.12519 8.7725V6.77L7.71144 6.20375L6.63519 7.2725L6.45519 7.25C3.19268 6.84125 2.75018 3.57875 2.75018 3.545L2.72768 3.365L3.79269 2.28875L3.23019 0.875H1.25018Z" fill="#575757"/>
</svg>
