<svg width="14" height="14" viewBox="0 0 14 14" fill="none" xmlns="http://www.w3.org/2000/svg">
<path d="M11.6634 6.41738H12.8301C12.8301 3.42488 10.5708 1.16797 7.57422 1.16797V2.33464C9.94372 2.33464 11.6634 4.05138 11.6634 6.41738Z" fill="black"/>
<path d="M7.58322 4.66712C8.80997 4.66712 9.33322 5.19037 9.33322 6.41712H10.4999C10.4999 4.53587 9.46447 3.50045 7.58322 3.50045V4.66712ZM9.57939 7.84221C9.4673 7.74033 9.32001 7.68599 9.16861 7.69067C9.01721 7.69535 8.87356 7.75868 8.76797 7.86729L7.37206 9.30287C7.03606 9.23871 6.36056 9.02812 5.66522 8.33454C4.96989 7.63862 4.75931 6.96137 4.69689 6.62771L6.13131 5.2312C6.24005 5.1257 6.30347 4.98202 6.30815 4.83058C6.31283 4.67913 6.25841 4.53181 6.15639 4.41979L4.00097 2.0497C3.89891 1.93733 3.75707 1.86917 3.60556 1.85969C3.45406 1.85021 3.30482 1.90017 3.18956 1.99895L1.92372 3.08454C1.82287 3.18576 1.76268 3.32047 1.75456 3.46312C1.74581 3.60895 1.57897 7.06346 4.25764 9.74329C6.59447 12.0795 9.52164 12.2505 10.3278 12.2505C10.4456 12.2505 10.518 12.247 10.5372 12.2458C10.6799 12.2378 10.8145 12.1773 10.9152 12.076L12.0002 10.8096C12.0991 10.6944 12.1491 10.5452 12.1398 10.3937C12.1304 10.2422 12.0623 10.1003 11.9501 9.99821L9.57939 7.84221Z" fill="black"/>
</svg>
