<svg width="7" height="7" viewBox="0 0 7 7" fill="none" xmlns="http://www.w3.org/2000/svg">
<path d="M0.333333 2.91252H1.33333C1.42174 2.91252 1.50652 2.95167 1.56904 3.02135C1.63155 3.09104 1.66667 3.18556 1.66667 3.28411V6.62841C1.66667 6.72696 1.63155 6.82148 1.56904 6.89116C1.50652 6.96085 1.42174 7 1.33333 7H0.333333C0.244928 7 0.160143 6.96085 0.0976311 6.89116C0.0351189 6.82148 0 6.72696 0 6.62841V3.28411C0 3.18556 0.0351189 3.09104 0.0976311 3.02135C0.160143 2.95167 0.244928 2.91252 0.333333 2.91252ZM0.333333 3.28411V6.62841H1.33333V3.28411H0.333333ZM5.572 6.26611L6.57233 4.40816C6.63233 4.29669 6.66667 4.16663 6.66667 4.02729V3.6557C6.66667 3.45859 6.59643 3.26956 6.4714 3.13019C6.34638 2.99082 6.17681 2.91252 6 2.91252H4.13L4.61567 0.891071L4.61733 0.884383C4.63252 0.8214 4.63256 0.755072 4.61747 0.692063C4.60237 0.629054 4.57266 0.571584 4.53133 0.525427L2.52833 2.75831C2.46636 2.8273 2.41722 2.90928 2.38376 2.99951C2.35029 3.08975 2.33316 3.18646 2.33333 3.28411V5.88523C2.33333 6.08234 2.40357 6.27137 2.5286 6.41074C2.65362 6.55011 2.82319 6.62841 3 6.62841H5C5.24333 6.62841 5.456 6.48349 5.572 6.26611ZM7 4.02729C7 4.24801 6.94267 4.4535 6.84333 4.62629L5.87467 6.42589C5.7881 6.5999 5.66134 6.7449 5.50753 6.84585C5.35373 6.94681 5.17849 7.00003 5 7H3C2.73478 7 2.48043 6.88255 2.29289 6.67349C2.10536 6.46443 2 6.18089 2 5.88523V3.28411C2 2.97643 2.11167 2.69811 2.29233 2.49634L4.53133 0L4.767 0.262714C4.85133 0.356725 4.9115 0.474233 4.94122 0.602989C4.97095 0.731744 4.96914 0.867031 4.936 0.994745L4.56433 2.54093H6C6.26522 2.54093 6.51957 2.65838 6.70711 2.86744C6.89464 3.0765 7 3.36004 7 3.6557V4.02729Z" fill="#BDBDBC"/>
</svg>
