<svg width="8" height="8" viewBox="0 0 8 8" fill="none" xmlns="http://www.w3.org/2000/svg">
<path d="M4 2.21573C3.54167 2.21573 3.16667 1.78459 3.16667 1.25764C3.16667 0.718722 3.54167 0.299561 4 0.299561C4.45833 0.299561 4.83333 0.718722 4.83333 1.25764C4.83333 1.78459 4.45833 2.21573 4 2.21573ZM0.677083 1.82052C1.04167 1.82052 1.33333 2.16782 1.33333 2.58699C1.33333 3.01812 1.04167 3.35345 0.677083 3.35345C0.302083 3.35345 0 3.01812 0 2.58699C0 2.16782 0.302083 1.82052 0.677083 1.82052ZM7.34375 1.82052C7.70833 1.82052 8 2.16782 8 2.58699C8 3.01812 7.70833 3.35345 7.34375 3.35345C6.96875 3.35345 6.66667 3.01812 6.66667 2.58699C6.66667 2.16782 6.96875 1.82052 7.34375 1.82052ZM1.40625 7.11393L0.854167 3.64088C1.02083 3.60495 1.17708 3.49717 1.30208 3.3774C1.64583 3.73669 2.08333 4.08399 2.5 4.08399C3 4.08399 3.40625 3.19776 3.6875 2.45525C3.78125 2.49118 3.89583 2.52711 4 2.52711C4.10417 2.52711 4.21875 2.49118 4.3125 2.45525C4.59375 3.19776 5 4.08399 5.5 4.08399C5.91667 4.08399 6.35417 3.73669 6.69792 3.3774C6.82292 3.49717 6.97917 3.60495 7.14583 3.64088L6.59375 7.11393H1.40625ZM1.29167 7.41333H6.70833V8.00016H1.29167V7.41333Z" fill="#FFE601"/>
</svg>
