<svg width="20" height="20" viewBox="0 0 20 20" fill="none" xmlns="http://www.w3.org/2000/svg">
<path fill-rule="evenodd" clip-rule="evenodd" d="M19.633 17.9629L14.1573 12.4851C15.1388 11.1464 15.6646 9.5279 15.6573 7.86794C15.6385 3.53487 12.1339 0.0251063 7.80085 7.95969e-05C5.72725 -0.00930225 3.73602 0.811018 2.27076 2.2783C0.805493 3.74557 -0.0120928 5.73792 0.000135215 7.81151C0.0188634 12.145 3.52385 15.6551 7.85728 15.6801C9.52401 15.6873 11.1484 15.1554 12.488 14.1637L12.4937 14.1594L17.9644 19.6329C18.2602 19.9432 18.7009 20.0688 19.1159 19.9611C19.5308 19.8533 19.8547 19.5291 19.9621 19.1141C20.0695 18.6991 19.9436 18.2585 19.633 17.9629ZM7.85156 14.1115C4.38501 14.0916 1.58107 11.2838 1.56585 7.81722C1.55649 6.15857 2.21062 4.56501 3.38261 3.39127C4.5546 2.21754 6.14718 1.56105 7.80585 1.56794C11.2724 1.58788 14.0763 4.39565 14.0916 7.86222C14.1009 9.52087 13.4468 11.1144 12.2748 12.2882C11.1028 13.4619 9.51023 14.1184 7.85156 14.1115Z" fill="#8F9BB3"/>
</svg>
