<svg width="18" height="18" viewBox="0 0 18 18" fill="none" xmlns="http://www.w3.org/2000/svg">
<path d="M7.5 13.5C8.83123 13.4997 10.1241 13.0541 11.1728 12.234L14.4697 15.531L15.5303 14.4705L12.2333 11.1735C13.0538 10.1247 13.4997 8.83158 13.5 7.5C13.5 4.19175 10.8082 1.5 7.5 1.5C4.19175 1.5 1.5 4.19175 1.5 7.5C1.5 10.8082 4.19175 13.5 7.5 13.5ZM7.5 3C9.98175 3 12 5.01825 12 7.5C12 9.98175 9.98175 12 7.5 12C5.01825 12 3 9.98175 3 7.5C3 5.01825 5.01825 3 7.5 3Z" fill="#8F9BB3"/>
<path d="M8.55905 6.43973C8.8433 6.72473 9.00005 7.10122 9.00005 7.50023H10.5001C10.5007 7.10605 10.4232 6.71564 10.2721 6.35159C10.121 5.98753 9.89919 5.65704 9.61955 5.37922C8.48405 4.24522 6.5153 4.24522 5.38055 5.37922L6.43955 6.44123C7.00955 5.87273 7.99205 5.87423 8.55905 6.43973Z" fill="#8F9BB3"/>
</svg>
