<svg width="20" height="20" viewBox="0 0 20 20" fill="none" xmlns="http://www.w3.org/2000/svg">
<path d="M9.99999 13.4999C9.07173 13.4999 8.18149 13.1312 7.52512 12.4748C6.86874 11.8184 6.49999 10.9282 6.49999 9.99994C6.49999 9.07168 6.86874 8.18144 7.52512 7.52507C8.18149 6.86869 9.07173 6.49994 9.99999 6.49994C10.9282 6.49994 11.8185 6.86869 12.4749 7.52507C13.1312 8.18144 13.5 9.07168 13.5 9.99994C13.5 10.9282 13.1312 11.8184 12.4749 12.4748C11.8185 13.1312 10.9282 13.4999 9.99999 13.4999ZM17.43 10.9699C17.47 10.6499 17.5 10.3299 17.5 9.99994C17.5 9.66994 17.47 9.33994 17.43 8.99994L19.54 7.36994C19.73 7.21994 19.78 6.94994 19.66 6.72994L17.66 3.26994C17.54 3.04994 17.27 2.95994 17.05 3.04994L14.56 4.04994C14.04 3.65994 13.5 3.31994 12.87 3.06994L12.5 0.419941C12.4797 0.302158 12.4183 0.195368 12.3268 0.118492C12.2353 0.0416168 12.1195 -0.00038081 12 -5.92017e-05H7.99999C7.74999 -5.92017e-05 7.53999 0.179941 7.49999 0.419941L7.12999 3.06994C6.49999 3.31994 5.95999 3.65994 5.43999 4.04994L2.94999 3.04994C2.72999 2.95994 2.45999 3.04994 2.33999 3.26994L0.339992 6.72994C0.209992 6.94994 0.269992 7.21994 0.459992 7.36994L2.56999 8.99994C2.52999 9.33994 2.49999 9.66994 2.49999 9.99994C2.49999 10.3299 2.52999 10.6499 2.56999 10.9699L0.459992 12.6299C0.269992 12.7799 0.209992 13.0499 0.339992 13.2699L2.33999 16.7299C2.45999 16.9499 2.72999 17.0299 2.94999 16.9499L5.43999 15.9399C5.95999 16.3399 6.49999 16.6799 7.12999 16.9299L7.49999 19.5799C7.53999 19.8199 7.74999 19.9999 7.99999 19.9999H12C12.25 19.9999 12.46 19.8199 12.5 19.5799L12.87 16.9299C13.5 16.6699 14.04 16.3399 14.56 15.9399L17.05 16.9499C17.27 17.0299 17.54 16.9499 17.66 16.7299L19.66 13.2699C19.78 13.0499 19.73 12.7799 19.54 12.6299L17.43 10.9699Z" fill="white"/>
</svg>
