<svg width="23" height="23" viewBox="0 0 23 23" fill="none" xmlns="http://www.w3.org/2000/svg">
<path d="M11.5709 0.857117C5.57424 0.857117 0.71431 5.71813 0.71431 11.7137C0.71431 16.3128 3.57571 20.2447 7.61515 21.827C7.51952 20.9684 7.43475 19.647 7.6521 18.7102C7.84989 17.8625 8.92577 13.3134 8.92577 13.3134C8.92577 13.3134 8.60083 12.6624 8.60083 11.7007C8.60083 10.1923 9.47566 9.06531 10.5657 9.06531C11.4927 9.06531 11.9393 9.76083 11.9393 10.5944C11.9393 11.5268 11.346 12.9189 11.0406 14.21C10.7852 15.2902 11.5829 16.1715 12.6479 16.1715C14.5768 16.1715 16.0613 14.1372 16.0613 11.1997C16.0613 8.60019 14.1932 6.78314 11.5264 6.78314C8.43673 6.78314 6.62295 9.10009 6.62295 11.4942C6.62295 12.4266 6.98266 13.4275 7.43149 13.972C7.46963 14.013 7.49657 14.0631 7.5097 14.1176C7.52283 14.172 7.52172 14.2289 7.50648 14.2828C7.42388 14.6251 7.24022 15.363 7.20545 15.5141C7.15763 15.7129 7.04787 15.7553 6.84139 15.6597C5.48621 15.0283 4.63855 13.0461 4.63855 11.4529C4.63855 8.02856 7.12611 4.88351 11.8122 4.88351C15.5788 4.88351 18.5054 7.56669 18.5054 11.154C18.5054 14.8968 16.1461 17.906 12.8717 17.906C11.7709 17.906 10.7374 17.3355 10.3831 16.6606L9.70605 19.2405C9.46153 20.1838 8.7997 21.3662 8.3574 22.0878C9.39862 22.4093 10.4823 22.5723 11.572 22.5714C17.5676 22.5714 22.4286 17.7104 22.4286 11.7148C22.4286 5.71922 17.5665 0.857117 11.5709 0.857117Z"/>
</svg>
