<svg width="23" height="23" viewBox="0 0 23 23" fill="none" xmlns="http://www.w3.org/2000/svg">
<path d="M13.2606 10.952L10.6937 9.75431C10.4697 9.65031 10.2857 9.76688 10.2857 10.0149V12.2709C10.2857 12.5189 10.4697 12.6354 10.6937 12.5314L13.2594 11.3337C13.4846 11.2286 13.4846 11.0572 13.2606 10.952ZM11.4286 0.171448C5.36912 0.171448 0.457123 5.08345 0.457123 11.1429C0.457123 17.2023 5.36912 22.1143 11.4286 22.1143C17.488 22.1143 22.4 17.2023 22.4 11.1429C22.4 5.08345 17.488 0.171448 11.4286 0.171448ZM11.4286 15.6C5.81255 15.6 5.71427 15.0937 5.71427 11.1429C5.71427 7.19202 5.81255 6.68573 11.4286 6.68573C17.0445 6.68573 17.1428 7.19202 17.1428 11.1429C17.1428 15.0937 17.0445 15.6 11.4286 15.6Z"/>
</svg>
