<svg width="22" height="22" viewBox="0 0 22 22" fill="none" xmlns="http://www.w3.org/2000/svg">
<path d="M11 0.205383C5.0365 0.205383 0.205377 5.0372 0.205377 11C0.205377 16.9628 5.0372 21.7947 11 21.7947C16.9635 21.7947 21.7947 16.9628 21.7947 11C21.7947 5.0372 16.9628 0.205383 11 0.205383ZM16.3019 7.60076L14.5302 15.9495C14.3993 16.5415 14.0469 16.685 13.5552 16.4064L10.8566 14.4174L9.55493 15.671C9.41147 15.8144 9.28959 15.9363 9.01102 15.9363L9.20254 13.1896L14.2036 8.67117C14.4216 8.47965 14.1555 8.37101 13.8679 8.56253L7.68711 12.4535L5.02327 11.6219C4.44454 11.4395 4.43131 11.0432 5.14514 10.7646L15.5526 6.75112C16.0359 6.57701 16.4579 6.86881 16.3012 7.60006L16.3019 7.60076Z"/>
</svg>
