<svg width="23" height="23" viewBox="0 0 23 23" fill="none" xmlns="http://www.w3.org/2000/svg">
<path d="M11.8572 0.742859C5.79773 0.742859 0.885735 5.65486 0.885735 11.7143C0.885735 17.7737 5.79773 22.6857 11.8572 22.6857C17.9166 22.6857 22.8286 17.7737 22.8286 11.7143C22.8286 5.65486 17.9166 0.742859 11.8572 0.742859ZM9.17145 16.2617H6.94973V9.112H9.17145V16.2617ZM8.04688 8.23429C7.34516 8.23429 6.89145 7.73714 6.89145 7.12229C6.89145 6.49486 7.35888 6.01257 8.07545 6.01257C8.79202 6.01257 9.23088 6.49486 9.24459 7.12229C9.24459 7.73714 8.79202 8.23429 8.04688 8.23429ZM17.2857 16.2617H15.064V12.2994C15.064 11.3771 14.7417 10.7509 13.9383 10.7509C13.3246 10.7509 12.96 11.1749 12.7989 11.5829C12.7394 11.728 12.7246 11.9337 12.7246 12.1383V16.2606H10.5017V11.392C10.5017 10.4994 10.4732 9.75315 10.4434 9.11086H12.3737L12.4754 10.104H12.52C12.8126 9.63772 13.5292 8.94972 14.728 8.94972C16.1897 8.94972 17.2857 9.92914 17.2857 12.0343V16.2617Z"/>
</svg>
