<svg width="22" height="23" viewBox="0 0 22 23" fill="none" xmlns="http://www.w3.org/2000/svg">
<path d="M10.8543 7.66514C8.86065 7.66514 7.23373 9.2921 7.23373 11.2857C7.23373 13.2794 8.86065 14.9063 10.8543 14.9063C12.8478 14.9063 14.4748 13.2794 14.4748 11.2857C14.4748 9.2921 12.8478 7.66514 10.8543 7.66514ZM21.7131 11.2857C21.7131 9.78643 21.7267 8.30071 21.6425 6.80413C21.5583 5.06581 21.1617 3.52306 19.8906 2.25191C18.6168 0.978053 17.0768 0.584216 15.3385 0.500016C13.8392 0.415816 12.3535 0.429397 10.857 0.429397C9.3577 0.429397 7.87201 0.415816 6.37545 0.500016C4.63717 0.584216 3.09444 0.980769 1.82332 2.25191C0.549481 3.52577 0.155651 5.06581 0.0714524 6.80413C-0.0127458 8.30343 0.000834582 9.78915 0.000834582 11.2857C0.000834582 12.7823 -0.0127458 14.2707 0.0714524 15.7673C0.155651 17.5056 0.552197 19.0484 1.82332 20.3195C3.09715 21.5934 4.63717 21.9872 6.37545 22.0714C7.87472 22.1556 9.36041 22.1421 10.857 22.1421C12.3562 22.1421 13.8419 22.1556 15.3385 22.0714C17.0768 21.9872 18.6195 21.5907 19.8906 20.3195C21.1645 19.0457 21.5583 17.5056 21.6425 15.7673C21.7294 14.2707 21.7131 12.785 21.7131 11.2857ZM10.8543 16.8565C7.77151 16.8565 5.28359 14.3685 5.28359 11.2857C5.28359 8.20293 7.77151 5.71497 10.8543 5.71497C13.937 5.71497 16.4249 8.20293 16.4249 11.2857C16.4249 14.3685 13.937 16.8565 10.8543 16.8565ZM16.6531 6.78784C15.9333 6.78784 15.3521 6.20659 15.3521 5.48681C15.3521 4.76704 15.9333 4.18579 16.6531 4.18579C17.3728 4.18579 17.9541 4.76704 17.9541 5.48681C17.9543 5.65773 17.9208 5.827 17.8555 5.98495C17.7902 6.14289 17.6943 6.2864 17.5735 6.40725C17.4526 6.52811 17.3091 6.62393 17.1512 6.68924C16.9932 6.75454 16.824 6.78805 16.6531 6.78784Z"/>
</svg>
