<svg width="24" height="22" viewBox="0 0 24 22" fill="none" xmlns="http://www.w3.org/2000/svg">
<path fill-rule="evenodd" clip-rule="evenodd" d="M20.4 18.3333C20.4 19.008 19.8624 19.5556 19.2 19.5556C18.5376 19.5556 18 19.008 18 18.3333C18 17.6587 18.5376 17.1111 19.2 17.1111C19.8624 17.1111 20.4 17.6587 20.4 18.3333ZM12 14.6667H2.4L2.4192 2.44444H15.6L15.5808 14.6667H12ZM6 18.3333C6 19.008 5.4624 19.5556 4.8 19.5556C4.1376 19.5556 3.6 19.008 3.6 18.3333C3.6 17.6587 4.1376 17.1111 4.8 17.1111C5.4624 17.1111 6 17.6587 6 18.3333ZM21.6 11.5867V14.6667H18V8.65456L21.6 11.5867ZM23.55 10.0454L18 5.52322V2.44444C18 1.09633 17.0244 0 15.8244 0H2.1744C0.9756 0 0 1.09633 0 2.44444V14.6667C0 15.7337 0.6156 16.6332 1.4652 16.9669C1.2972 17.3898 1.2 17.8493 1.2 18.3333C1.2 20.3549 2.8152 22 4.8 22C6.7848 22 8.4 20.3549 8.4 18.3333C8.4 17.9019 8.3136 17.4949 8.178 17.1111H12H15.822C15.6864 17.4949 15.6 17.9019 15.6 18.3333C15.6 20.3549 17.2152 22 19.2 22C21.1848 22 22.8 20.3549 22.8 18.3333C22.8 17.9019 22.7136 17.4949 22.578 17.1111H22.8C23.4636 17.1111 24 16.5648 24 15.8889V11C24 10.6284 23.8344 10.2777 23.55 10.0454Z"/>
</svg>
