<svg width="23" height="20" viewBox="0 0 23 20" fill="none" xmlns="http://www.w3.org/2000/svg">
<path d="M21.4533 10.1734H20.3333V17.8067L15.4266 12.9L14.4866 13.84L19.3066 18.6667H2.77331L7.43998 13.84L6.47998 12.9134L1.66665 17.8934V6.3467L9.95331 14.5934C10.2031 14.8417 10.5411 14.9811 10.8933 14.9811C11.2456 14.9811 11.5835 14.8417 11.8333 14.5934L16.2733 10.1734H14.3866L10.8933 13.6467L2.53998 5.33336H12.3733L13.14 4.00003H1.66665C1.31302 4.00003 0.973886 4.14051 0.723837 4.39055C0.473789 4.6406 0.333313 4.97974 0.333313 5.33336V18.6667C0.333313 19.0203 0.473789 19.3595 0.723837 19.6095C0.973886 19.8596 1.31302 20 1.66665 20H20.3333C20.6869 20 21.0261 19.8596 21.2761 19.6095C21.5262 19.3595 21.6666 19.0203 21.6666 18.6667V10.16L21.4533 10.1734Z"/>
<path d="M16.9001 0.666975L13.0868 7.27364C13.0137 7.40277 12.9757 7.5487 12.9762 7.69704C12.9768 7.84539 13.0161 7.99102 13.0901 8.11957C13.1641 8.24812 13.2704 8.35514 13.3984 8.4301C13.5264 8.50505 13.6718 8.54533 13.8201 8.54698H21.4534C21.6018 8.54533 21.7471 8.50505 21.8751 8.4301C22.0032 8.35514 22.1094 8.24812 22.1835 8.11957C22.2575 7.99102 22.2967 7.84539 22.2973 7.69704C22.2979 7.5487 22.2598 7.40277 22.1868 7.27364L18.3734 0.666975C18.2982 0.538345 18.1907 0.431649 18.0614 0.357501C17.9322 0.283354 17.7858 0.244339 17.6368 0.244339C17.4878 0.244339 17.3414 0.283354 17.2121 0.357501C17.0829 0.431649 16.9753 0.538345 16.9001 0.666975Z"/>
</svg>
