<svg width="26" height="26" viewBox="0 0 26 26" fill="none" xmlns="http://www.w3.org/2000/svg">
<path d="M25 6.5H18.44C18.9411 6.01595 19.2858 5.39302 19.4298 4.71138C19.5738 4.02975 19.5105 3.32061 19.2481 2.67525C18.9856 2.0299 18.536 1.47786 17.9572 1.09019C17.3783 0.702523 16.6967 0.496973 16 0.5C15.3698 0.546065 14.7624 0.754478 14.2366 1.10496C13.7109 1.45543 13.2849 1.93604 13 2.5C12.7113 1.93906 12.2842 1.46101 11.7593 1.11105C11.2344 0.761096 10.6288 0.550785 10 0.5C9.30333 0.496973 8.62169 0.702523 8.04283 1.09019C7.46397 1.47786 7.01438 2.0299 6.75194 2.67525C6.48949 3.32061 6.4262 4.02975 6.57021 4.71138C6.71422 5.39302 7.05894 6.01595 7.56 6.5H1C0.867392 6.5 0.740215 6.55268 0.646447 6.64645C0.552679 6.74021 0.500001 6.86739 0.500001 7V11.29C0.499201 11.3556 0.512134 11.4206 0.537968 11.4809C0.563801 11.5411 0.601963 11.5954 0.650001 11.64C0.742926 11.7333 0.868343 11.7871 1 11.79H1.36V25C1.36 25.1326 1.41268 25.2598 1.50645 25.3536C1.60022 25.4473 1.72739 25.5 1.86 25.5H24.14C24.2726 25.5 24.3998 25.4473 24.4936 25.3536C24.5873 25.2598 24.64 25.1326 24.64 25V11.79H25C25.1326 11.79 25.2598 11.7373 25.3536 11.6436C25.4473 11.5498 25.5 11.4226 25.5 11.29V7C25.5 6.86739 25.4473 6.74021 25.3536 6.64645C25.2598 6.55268 25.1326 6.5 25 6.5ZM24.5 7.5V10.79H15.21V7.5H24.5ZM13 7.5H14.21V10.79H11.79V7.5H13ZM14.21 11.79V24.5H11.79V11.79H14.21ZM16 1.5C16.663 1.5 17.2989 1.76339 17.7678 2.23223C18.2366 2.70107 18.5 3.33696 18.5 4C18.5 4.66304 18.2366 5.29893 17.7678 5.76777C17.2989 6.23661 16.663 6.5 16 6.5H13.5V3.67C13.68 3.27 14.52 1.5 16 1.5ZM7.5 4C7.5 3.33696 7.76339 2.70107 8.23223 2.23223C8.70107 1.76339 9.33696 1.5 10 1.5C11.47 1.5 12.33 3.27 12.51 3.67V6.5H10C9.33696 6.5 8.70107 6.23661 8.23223 5.76777C7.76339 5.29893 7.5 4.66304 7.5 4ZM1.5 7.5H10.79V10.79H1.5V7.5ZM2.36 11.79H10.79V24.5H2.36V11.79ZM23.64 24.5H15.21V11.79H23.64V24.5Z"/>
</svg>
