<svg width="20" height="20" viewBox="0 0 20 20" fill="none" xmlns="http://www.w3.org/2000/svg">
<path d="M9.23077 0.000144457C7.96538 0.000144457 6.92308 1.04244 6.92308 2.30782L6.93538 2.18167L6.17769 6.72779L4.72385 10.7062C4.69615 10.7424 4.66308 10.7693 4.61538 10.7693H3.84615V10.0001H0V20H3.84615V17.6923H6.86615C8.13077 17.6923 9.27 17.0793 10 16.127C10.7308 17.0793 11.8692 17.6923 13.1338 17.6923H16.1538V20H20V10.0001H16.1538V10.7693H15.3846C15.3362 10.7693 15.3038 10.7424 15.2769 10.7062L13.8223 6.72779L13.0646 2.18167L13.0769 2.30782C13.0769 1.04244 12.0346 0.000144457 10.7692 0.000144457C10.5077 0.000144457 10.24 0.0509133 10 0.174759C9.76102 0.0564981 9.49739 -0.00334704 9.23077 0.000144457ZM9.20385 1.5509C9.21923 1.66167 9.23077 1.91398 9.23077 2.30782V14.1831C9.13 14.7366 8.83805 15.2371 8.40588 15.5973C7.9737 15.9575 7.42875 16.1545 6.86615 16.1539H3.84615V12.3077H4.61538C5.21923 12.3077 5.78154 11.9801 6.07846 11.4539L6.10923 11.397L7.66846 7.11855L8.46154 2.3709V2.30782C8.46154 1.88475 8.78615 1.56552 9.20385 1.5509ZM10.7962 1.5509C11.2138 1.56629 11.5385 1.88398 11.5385 2.30782V2.3709L12.3315 7.11855L13.8915 11.397L13.9215 11.4547C14.0684 11.7133 14.2812 11.9285 14.5381 12.0783C14.7951 12.2282 15.0872 12.3073 15.3846 12.3077H16.1538V16.1539H13.1338C12.5711 16.1545 12.0261 15.9574 11.5939 15.597C11.1617 15.2367 10.8698 14.736 10.7692 14.1824V2.30782C10.7692 1.91398 10.7815 1.66167 10.7962 1.5509ZM1.53846 11.5385H2.30769V18.4615H1.53846V11.5385ZM17.6923 11.5385H18.4615V18.4615H17.6923V11.5385Z"/>
</svg>
