<svg width="23" height="23" viewBox="0 0 23 23" fill="none" xmlns="http://www.w3.org/2000/svg">
<path d="M15.9857 13.3579C16.1557 13.5279 16.2512 13.7584 16.2512 13.9988C16.2512 14.2392 16.1557 14.4697 15.9857 14.6397L12.1408 18.4846C12.1356 18.4898 12.1301 18.4942 12.1247 18.4992C12.1087 18.5145 12.0926 18.5298 12.0755 18.5438C12.0681 18.5498 12.0602 18.5552 12.0527 18.5608C12.0367 18.5732 12.0209 18.5856 12.004 18.5968C11.9979 18.601 11.9912 18.6044 11.9848 18.6084C11.9662 18.6203 11.9475 18.6321 11.9277 18.6426C11.9232 18.6451 11.9181 18.6471 11.9135 18.6495C11.892 18.6606 11.8701 18.6714 11.8474 18.6807C11.8444 18.682 11.8411 18.6829 11.8379 18.6841C11.8137 18.694 11.7891 18.7028 11.7642 18.7106C11.7609 18.7117 11.7575 18.7122 11.7543 18.7132C11.7293 18.7206 11.704 18.727 11.6784 18.7322C11.6711 18.7337 11.6635 18.7344 11.6561 18.7356C11.6345 18.7395 11.6127 18.7432 11.5904 18.7454C11.5303 18.7515 11.4696 18.7515 11.4095 18.7454C11.3872 18.7431 11.3654 18.7394 11.3438 18.7356C11.3364 18.7343 11.3289 18.7337 11.3217 18.7322C11.2961 18.727 11.2707 18.7206 11.2456 18.7132C11.2424 18.7122 11.2391 18.7116 11.2358 18.7106C11.2109 18.7029 11.1863 18.6941 11.1622 18.6842L11.1526 18.6808C11.1301 18.6713 11.1081 18.6608 11.0865 18.6495C11.0819 18.6471 11.0769 18.6451 11.0723 18.6427C11.0528 18.632 11.0338 18.6205 11.0152 18.6084C11.0088 18.6044 11.0021 18.601 10.9959 18.5968C10.9791 18.5855 10.9633 18.5732 10.9473 18.5608C10.9398 18.5552 10.9319 18.5498 10.9246 18.5438C10.9076 18.5296 10.8912 18.5147 10.8753 18.4992C10.8699 18.4942 10.8644 18.4898 10.8592 18.4846L7.01429 14.6397C6.8443 14.4697 6.74879 14.2392 6.74877 13.9988C6.74875 13.7585 6.84422 13.5279 7.01418 13.3579C7.18413 13.1879 7.41466 13.0924 7.65504 13.0924C7.89542 13.0924 8.12596 13.1879 8.29595 13.3578L10.5938 15.6559V8.78125C10.5938 8.5409 10.6892 8.31039 10.8592 8.14043C11.0291 7.97048 11.2596 7.875 11.5 7.875C11.7404 7.875 11.9709 7.97048 12.1408 8.14043C12.3108 8.31039 12.4062 8.5409 12.4062 8.78125V15.6559L14.704 13.3579C14.874 13.188 15.1045 13.0926 15.3449 13.0926C15.5852 13.0926 15.8157 13.188 15.9857 13.3579ZM22.375 5.15625V20.5625C22.3745 21.043 22.1833 21.5037 21.8435 21.8435C21.5037 22.1833 21.043 22.3745 20.5625 22.375H2.4375C1.95696 22.3745 1.49626 22.1833 1.15647 21.8435C0.816672 21.5037 0.62554 21.043 0.625 20.5625V5.15625C0.625105 5.12279 0.627033 5.08936 0.630777 5.05611C0.631797 5.04784 0.633496 5.03968 0.634629 5.03141C0.638027 5.00638 0.642106 4.98157 0.647656 4.95721C0.649695 4.94793 0.652301 4.93898 0.65468 4.92969C0.66307 4.89701 0.673282 4.86482 0.685266 4.83329C0.693875 4.81093 0.703315 4.78903 0.713586 4.76758C0.716078 4.76214 0.717891 4.75625 0.720723 4.75093L2.53322 1.12593C2.60849 0.97541 2.72418 0.848821 2.86734 0.760346C3.0105 0.671871 3.17546 0.625006 3.34375 0.625H19.6562C19.8245 0.625006 19.9895 0.671871 20.1327 0.760346C20.2758 0.848821 20.3915 0.97541 20.4668 1.12593L22.2793 4.75093C22.282 4.75637 22.2838 4.76214 22.2865 4.76758C22.3112 4.8196 22.3309 4.87384 22.3453 4.92957C22.3476 4.93886 22.3503 4.94804 22.3523 4.95733C22.3578 4.98157 22.3619 5.00615 22.3654 5.03119C22.3665 5.03946 22.3682 5.04784 22.3692 5.05611C22.373 5.08936 22.3749 5.12279 22.375 5.15625ZM2.99756 4.25H20.0024L19.0962 2.4375H3.90381L2.99756 4.25ZM20.5636 20.5625L20.5625 6.0625H2.4375V20.5625H20.5636Z" fill="#006699"/>
</svg>
