<svg width="22" height="24" viewBox="0 0 22 24" fill="none" xmlns="http://www.w3.org/2000/svg">
<path d="M19.5 10.9525V4.33333C19.5 3.7587 19.2717 3.2076 18.8654 2.80127C18.4591 2.39494 17.908 2.16667 17.3333 2.16667H12.805C12.35 0.91 11.1583 0 9.75 0C8.34167 0 7.15 0.91 6.695 2.16667H2.16667C0.975 2.16667 0 3.14167 0 4.33333V19.5C0 20.0746 0.228273 20.6257 0.634602 21.0321C1.04093 21.4384 1.59203 21.6667 2.16667 21.6667H8.78583C10.1508 23.01 12.0142 23.8333 14.0833 23.8333C18.2758 23.8333 21.6667 20.4425 21.6667 16.25C21.6667 14.1808 20.8433 12.3175 19.5 10.9525ZM9.75 2.16667C10.3458 2.16667 10.8333 2.65417 10.8333 3.25C10.8333 3.84583 10.3458 4.33333 9.75 4.33333C9.15417 4.33333 8.66667 3.84583 8.66667 3.25C8.66667 2.65417 9.15417 2.16667 9.75 2.16667ZM2.16667 19.5V4.33333H4.33333V6.5H15.1667V4.33333H17.3333V9.40333C15.9203 8.73195 14.334 8.51438 12.7923 8.78049C11.2507 9.0466 9.82916 9.78334 8.72292 10.8896C7.61667 11.9958 6.87993 13.4173 6.61382 14.959C6.34772 16.5007 6.56529 18.0869 7.23667 19.5H2.16667ZM14.0833 21.6667C11.0933 21.6667 8.66667 19.24 8.66667 16.25C8.66667 13.26 11.0933 10.8333 14.0833 10.8333C17.0733 10.8333 19.5 13.26 19.5 16.25C19.5 19.24 17.0733 21.6667 14.0833 21.6667ZM14.625 16.5208L17.7233 18.3517L16.9108 19.6733L13 17.3333V11.9167H14.625V16.5208Z"/>
</svg>
