<svg width="23" height="23" viewBox="0 0 23 23" fill="none" xmlns="http://www.w3.org/2000/svg">
<path d="M11.5 22.75C5.28663 22.75 0.25 17.7134 0.25 11.5C0.25 5.28663 5.28663 0.25 11.5 0.25C17.7134 0.25 22.75 5.28663 22.75 11.5C22.75 17.7134 17.7134 22.75 11.5 22.75ZM11.5 20.5C13.8869 20.5 16.1761 19.5518 17.864 17.864C19.5518 16.1761 20.5 13.8869 20.5 11.5C20.5 9.11305 19.5518 6.82387 17.864 5.13604C16.1761 3.44821 13.8869 2.5 11.5 2.5C9.11305 2.5 6.82387 3.44821 5.13604 5.13604C3.44821 6.82387 2.5 9.11305 2.5 11.5C2.5 13.8869 3.44821 16.1761 5.13604 17.864C6.82387 19.5518 9.11305 20.5 11.5 20.5ZM7.5625 13.75H13.75C13.8992 13.75 14.0423 13.6907 14.1477 13.5852C14.2532 13.4798 14.3125 13.3367 14.3125 13.1875C14.3125 13.0383 14.2532 12.8952 14.1477 12.7898C14.0423 12.6843 13.8992 12.625 13.75 12.625H9.25C8.50408 12.625 7.78871 12.3287 7.26126 11.8012C6.73382 11.2738 6.4375 10.5584 6.4375 9.8125C6.4375 9.06658 6.73382 8.35121 7.26126 7.82376C7.78871 7.29632 8.50408 7 9.25 7H10.375V4.75H12.625V7H15.4375V9.25H9.25C9.10082 9.25 8.95774 9.30926 8.85225 9.41475C8.74676 9.52024 8.6875 9.66332 8.6875 9.8125C8.6875 9.96168 8.74676 10.1048 8.85225 10.2102C8.95774 10.3157 9.10082 10.375 9.25 10.375H13.75C14.4959 10.375 15.2113 10.6713 15.7387 11.1988C16.2662 11.7262 16.5625 12.4416 16.5625 13.1875C16.5625 13.9334 16.2662 14.6488 15.7387 15.1762C15.2113 15.7037 14.4959 16 13.75 16H12.625V18.25H10.375V16H7.5625V13.75Z"/>
</svg>
