<svg width="24" height="24" viewBox="0 0 24 24" fill="none" xmlns="http://www.w3.org/2000/svg">
<path fill-rule="evenodd" clip-rule="evenodd" d="M10.9086 9.63638C10.9086 9.0342 11.3973 8.54547 11.9995 8.54547C12.6017 8.54547 13.0904 9.0342 13.0904 9.63638V14C13.0904 14.6022 12.6017 15.0909 11.9995 15.0909C11.3973 15.0909 10.9086 14.6022 10.9086 14V9.63638ZM10.9086 17.2728C10.9086 16.6706 11.3973 16.1818 11.9995 16.1818C12.6017 16.1818 13.0904 16.6706 13.0904 17.2728C13.0904 17.8749 12.6017 18.3637 11.9995 18.3637C11.3973 18.3637 10.9086 17.8749 10.9086 17.2728ZM21.6701 19.8397C21.4203 20.2815 20.9337 20.5455 20.3686 20.5455H3.62969C3.0646 20.5455 2.57805 20.2815 2.32933 19.8397C2.21151 19.6324 2.0566 19.2102 2.34787 18.7302L10.7163 4.85601C11.2257 4.01164 12.7726 4.01164 13.2821 4.85601L21.6516 18.7302C21.9417 19.2102 21.7879 19.6324 21.6701 19.8397ZM23.5203 17.6033L15.1508 3.728C14.4974 2.64582 13.3192 2 11.9992 2C10.6792 2 9.50098 2.64582 8.84861 3.728L0.47914 17.6033C-0.141589 18.632 -0.160134 19.8691 0.428958 20.912C1.0606 22.0324 2.28787 22.7273 3.62969 22.7273H20.3686C21.7115 22.7273 22.9377 22.0324 23.5705 20.912C24.1596 19.8691 24.141 18.632 23.5203 17.6033Z" fill="#FFBA69"/>
<mask id="mask0" mask-type="alpha" maskUnits="userSpaceOnUse" x="0" y="2" width="24" height="21">
<path fill-rule="evenodd" clip-rule="evenodd" d="M10.9086 9.63638C10.9086 9.0342 11.3973 8.54547 11.9995 8.54547C12.6017 8.54547 13.0904 9.0342 13.0904 9.63638V14C13.0904 14.6022 12.6017 15.0909 11.9995 15.0909C11.3973 15.0909 10.9086 14.6022 10.9086 14V9.63638ZM10.9086 17.2728C10.9086 16.6706 11.3973 16.1818 11.9995 16.1818C12.6017 16.1818 13.0904 16.6706 13.0904 17.2728C13.0904 17.8749 12.6017 18.3637 11.9995 18.3637C11.3973 18.3637 10.9086 17.8749 10.9086 17.2728ZM21.6701 19.8397C21.4203 20.2815 20.9337 20.5455 20.3686 20.5455H3.62969C3.0646 20.5455 2.57805 20.2815 2.32933 19.8397C2.21151 19.6324 2.0566 19.2102 2.34787 18.7302L10.7163 4.85601C11.2257 4.01164 12.7726 4.01164 13.2821 4.85601L21.6516 18.7302C21.9417 19.2102 21.7879 19.6324 21.6701 19.8397ZM23.5203 17.6033L15.1508 3.728C14.4974 2.64582 13.3192 2 11.9992 2C10.6792 2 9.50098 2.64582 8.84861 3.728L0.47914 17.6033C-0.141589 18.632 -0.160134 19.8691 0.428958 20.912C1.0606 22.0324 2.28787 22.7273 3.62969 22.7273H20.3686C21.7115 22.7273 22.9377 22.0324 23.5705 20.912C24.1596 19.8691 24.141 18.632 23.5203 17.6033Z" fill="white"/>
</mask>
<g mask="url(#mask0)">
</g>
</svg>
