<svg width="12" height="12" viewBox="0 0 12 12" fill="none" xmlns="http://www.w3.org/2000/svg">
<path d="M7.58797 4.12685L5.08547 6.63518L4.12297 5.67268C4.07068 5.61162 4.00632 5.56202 3.93395 5.52701C3.86158 5.492 3.78276 5.47232 3.70242 5.46922C3.62208 5.46611 3.54197 5.47965 3.46712 5.50898C3.39226 5.5383 3.32427 5.58279 3.26743 5.63964C3.21058 5.69648 3.16609 5.76447 3.13677 5.83933C3.10744 5.91418 3.0939 5.99429 3.09701 6.07463C3.10011 6.15497 3.11978 6.23379 3.1548 6.30616C3.18981 6.37854 3.23941 6.44289 3.30047 6.49518L4.6713 7.87185C4.72581 7.92591 4.79045 7.96869 4.86153 7.99771C4.9326 8.02674 5.0087 8.04146 5.08547 8.04102C5.2385 8.04037 5.38515 7.97962 5.4938 7.87185L8.41047 4.95518C8.46515 4.90095 8.50854 4.83644 8.53816 4.76535C8.56777 4.69427 8.58302 4.61802 8.58302 4.54102C8.58302 4.46401 8.56777 4.38776 8.53816 4.31668C8.50854 4.24559 8.46515 4.18108 8.41047 4.12685C8.30118 4.0182 8.15333 3.95722 7.99922 3.95722C7.84511 3.95722 7.69727 4.0182 7.58797 4.12685ZM6.0013 0.166016C4.84758 0.166016 3.71976 0.508135 2.76048 1.14911C1.80119 1.79008 1.05352 2.70113 0.612007 3.76703C0.170496 4.83293 0.0549768 6.00582 0.280057 7.13738C0.505138 8.26893 1.06071 9.30833 1.87652 10.1241C2.69232 10.9399 3.73172 11.4955 4.86328 11.7206C5.99483 11.9457 7.16772 11.8302 8.23362 11.3886C9.29953 10.9471 10.2106 10.1995 10.8515 9.24018C11.4925 8.28089 11.8346 7.15307 11.8346 5.99935C11.8346 5.2333 11.6838 4.47476 11.3906 3.76703C11.0974 3.0593 10.6678 2.41623 10.1261 1.87456C9.58442 1.33288 8.94136 0.903204 8.23362 0.610052C7.52589 0.316899 6.76735 0.166016 6.0013 0.166016ZM6.0013 10.666C5.07833 10.666 4.17607 10.3923 3.40864 9.87954C2.64121 9.36676 2.04308 8.63793 1.68987 7.7852C1.33666 6.93248 1.24424 5.99417 1.42431 5.08893C1.60437 4.18368 2.04883 3.35216 2.70147 2.69952C3.35412 2.04687 4.18564 1.60242 5.09088 1.42235C5.99613 1.24229 6.93444 1.3347 7.78716 1.68791C8.63988 2.04112 9.36872 2.63926 9.8815 3.40669C10.3943 4.17412 10.668 5.07637 10.668 5.99935C10.668 7.23703 10.1763 8.42401 9.30114 9.29918C8.42597 10.1743 7.23898 10.666 6.0013 10.666Z" fill="#94AB6F"/>
</svg>
