<svg width="51" height="54" fill="none" xmlns="http://www.w3.org/2000/svg"><path d="M26.587 48.014a5.36 5.36 0 01-6.854-3.173 5.255 5.255 0 013.174-6.827c2.773-1.013 5.84.4 6.853 3.147a5.36 5.36 0 01-3.173 6.853zm-5.52-15.013c-5.52 2-8.374 8.133-6.4 13.68A10.781 10.781 0 0028.427 53c5.52-2 8.346-8.134 6.346-13.654C32.747 33.8 26.587 31 21.067 33zM37.173 7.214l-17.52 6.453 3.68 9.974 17.52-6.427-3.68-10zm11.68 24.107l-12.746 4.666c.453.774.826 1.574 1.146 2.427.32.853.534 1.733.667 2.587l12.747-4.667-1.814-5.013zm-2.08-13.44L24.24 26.147l1.307 3.52c3.333.24 6.453 1.707 8.826 4.134l16.08-5.894-3.68-10.026zM0 .334v5.333h8.24l9.52 26a13.19 13.19 0 014.987-1.84L12 .334" fill="#069"/></svg>