<svg width="64" height="64" viewBox="0 0 64 64" fill="none" xmlns="http://www.w3.org/2000/svg">
<circle cx="32" cy="32" r="31" stroke="#F05A50" stroke-width="2"/>
<path d="M32.0001 15.126C32.8102 15.126 33.5872 15.4479 34.16 16.0207C34.7328 16.5935 35.0546 17.3705 35.0546 18.1806V36.5079C35.0546 37.318 34.7328 38.0949 34.16 38.6677C33.5872 39.2406 32.8102 39.5624 32.0001 39.5624C31.19 39.5624 30.4131 39.2406 29.8402 38.6677C29.2674 38.0949 28.9456 37.318 28.9456 36.5079V18.1806C28.9456 17.3705 29.2674 16.5935 29.8402 16.0207C30.4131 15.4479 31.19 15.126 32.0001 15.126Z" fill="#F05A50"/>
<path d="M32.0001 45.6714C31.19 45.6714 30.4131 45.9932 29.8402 46.566C29.2674 47.1389 28.9456 47.9158 28.9456 48.7259C28.9456 49.536 29.2674 50.313 29.8402 50.8858C30.4131 51.4587 31.19 51.7805 32.0001 51.7805C32.8102 51.7805 33.5872 51.4587 34.16 50.8858C34.7328 50.313 35.0546 49.536 35.0546 48.7259C35.0546 47.9158 34.7328 47.1389 34.16 46.566C33.5872 45.9932 32.8102 45.6714 32.0001 45.6714Z" fill="#F05A50"/>
</svg>
