<svg width="51" height="54" viewBox="0 0 51 54" fill="none" xmlns="http://www.w3.org/2000/svg">
<path d="M26.5867 48.014C25.2568 48.4966 23.79 48.4338 22.5062 47.8393C21.2224 47.2449 20.2256 46.167 19.7333 44.8407C19.4837 44.1848 19.3681 43.4856 19.3931 42.7844C19.4182 42.0831 19.5835 41.3939 19.8793 40.7576C20.1751 40.1213 20.5954 39.5507 21.1153 39.0794C21.6353 38.6082 22.2444 38.2459 22.9067 38.014C25.68 37.0006 28.7467 38.414 29.76 41.1607C30.2426 42.4906 30.1798 43.9573 29.5854 45.2411C28.9909 46.5249 27.913 47.5217 26.5867 48.014ZM21.0667 33.0007C15.5467 35.0007 12.6933 41.134 14.6667 46.6806C15.6694 49.331 17.6754 51.48 20.2505 52.6628C22.8256 53.8455 25.7628 53.9669 28.4267 53.0007C33.9467 51.0007 36.7733 44.8673 34.7733 39.3473C32.7467 33.8007 26.5867 31.0007 21.0667 33.0007ZM37.1733 7.21398L19.6533 13.6673L23.3333 23.6407L40.8533 17.214L37.1733 7.21398ZM48.8533 31.3207L36.1067 35.9873C36.56 36.7607 36.9333 37.5607 37.2533 38.414C37.5733 39.2673 37.7867 40.1473 37.92 41.0007L50.6667 36.334L48.8533 31.3207ZM46.7733 17.8807L24.24 26.1473L25.5467 29.6673C28.88 29.9073 32 31.374 34.3733 33.8007L50.4533 27.9073L46.7733 17.8807ZM0 0.333984V5.66732H8.24L17.76 31.6673C19.2801 30.7219 20.9768 30.0959 22.7467 29.8273L12 0.333984" fill="#006699"/>
</svg>
