<svg width="17" height="19" viewBox="0 0 17 19" fill="none" xmlns="http://www.w3.org/2000/svg">
<path d="M16.375 16.5V4.25C16.375 3.28487 15.5901 2.5 14.625 2.5H12.875V0.75H11.125V2.5H5.875V0.75H4.125V2.5H2.375C1.40987 2.5 0.625 3.28487 0.625 4.25V16.5C0.625 17.4651 1.40987 18.25 2.375 18.25H14.625C15.5901 18.25 16.375 17.4651 16.375 16.5ZM5.875 14.75H4.125V13H5.875V14.75ZM5.875 11.25H4.125V9.5H5.875V11.25ZM9.375 14.75H7.625V13H9.375V14.75ZM9.375 11.25H7.625V9.5H9.375V11.25ZM12.875 14.75H11.125V13H12.875V14.75ZM12.875 11.25H11.125V9.5H12.875V11.25ZM14.625 6.875H2.375V5.125H14.625V6.875Z" fill="#8F9BB3"/>
</svg>
