<svg width="9" height="9" viewBox="0 0 9 9" fill="none" xmlns="http://www.w3.org/2000/svg">
<path fill-rule="evenodd" clip-rule="evenodd" d="M5.87364 5.87371C5.92588 5.82142 5.98792 5.77993 6.0562 5.75162C6.12449 5.72331 6.19769 5.70874 6.27161 5.70874C6.34553 5.70874 6.41873 5.72331 6.48701 5.75162C6.5553 5.77993 6.61734 5.82142 6.66958 5.87371L8.8352 8.03934C8.94075 8.14481 9.00008 8.28789 9.00013 8.43711C9.00018 8.58632 8.94096 8.72945 8.83548 8.835C8.73001 8.94054 8.58693 8.99987 8.43771 8.99992C8.2885 8.99997 8.14538 8.94075 8.03983 8.83528L5.8742 6.66965C5.8219 6.61741 5.78041 6.55537 5.75211 6.48709C5.7238 6.4188 5.70923 6.3456 5.70923 6.27168C5.70923 6.19776 5.7238 6.12457 5.75211 6.05628C5.78041 5.98799 5.8219 5.92596 5.8742 5.87371H5.87364Z" fill="#8F9BB3"/>
<path fill-rule="evenodd" clip-rule="evenodd" d="M3.65625 6.75C4.06253 6.75 4.46483 6.66998 4.84018 6.5145C5.21553 6.35903 5.55658 6.13114 5.84386 5.84386C6.13114 5.55658 6.35903 5.21553 6.5145 4.84018C6.66998 4.46483 6.75 4.06253 6.75 3.65625C6.75 3.24997 6.66998 2.84767 6.5145 2.47232C6.35903 2.09697 6.13114 1.75592 5.84386 1.46864C5.55658 1.18136 5.21553 0.953473 4.84018 0.797998C4.46483 0.642522 4.06253 0.5625 3.65625 0.5625C2.83574 0.5625 2.04883 0.888448 1.46864 1.46864C0.888448 2.04883 0.5625 2.83574 0.5625 3.65625C0.5625 4.47676 0.888448 5.26367 1.46864 5.84386C2.04883 6.42405 2.83574 6.75 3.65625 6.75ZM7.3125 3.65625C7.3125 4.62595 6.92729 5.55593 6.24161 6.24161C5.55593 6.92729 4.62595 7.3125 3.65625 7.3125C2.68655 7.3125 1.75657 6.92729 1.07089 6.24161C0.385211 5.55593 0 4.62595 0 3.65625C0 2.68655 0.385211 1.75657 1.07089 1.07089C1.75657 0.385211 2.68655 0 3.65625 0C4.62595 0 5.55593 0.385211 6.24161 1.07089C6.92729 1.75657 7.3125 2.68655 7.3125 3.65625Z" fill="#8F9BB3"/>
</svg>
